<svg width="26" height="27" viewBox="0 0 26 27" fill="none" xmlns="http://www.w3.org/2000/svg">
<g id="Group">
<path id="Vector" d="M11.6467 0.0392011C10.6486 0.176498 9.34431 0.678161 8.88489 1.10589C8.66839 1.30128 8.76872 1.67621 9.05387 1.74485C9.15421 1.77126 9.30735 1.71317 9.67699 1.51779C12.951 -0.245955 17.0646 1.31184 17.8515 4.61225C17.9465 4.99774 17.9571 5.18785 17.9359 5.71063L17.9148 6.34431L17.3023 8.16614C16.9643 9.16947 16.5683 10.4368 16.4204 10.9913C16.2725 11.5405 16.1141 12.1161 16.0772 12.2587C16.0349 12.4065 15.9399 12.5861 15.8659 12.6547L15.7233 12.7867H12.555H9.38656L9.24398 12.623C9.14365 12.5121 9.06444 12.3273 9.00107 12.0685C8.774 11.1286 8.29874 9.54967 7.77595 8.00772L7.21092 6.34431L7.20564 5.57862C7.20564 4.52776 7.37462 3.95745 7.96078 3.04918C8.08223 2.86436 8.18257 2.67953 8.18257 2.64257C8.18257 2.49471 8.05583 2.30989 7.92381 2.26236C7.6809 2.17787 7.52248 2.28348 7.23733 2.7165C6.70398 3.52972 6.45051 4.31654 6.40298 5.27234C6.36074 6.075 6.43467 6.52385 6.76735 7.47965C7.26901 8.92127 7.71787 10.3576 8.05583 11.5933C8.44132 12.9927 8.53637 13.1775 9.00107 13.4257C9.09084 13.4732 9.16477 13.5207 9.17533 13.526C9.20701 13.5524 9.54498 17.8033 9.51857 17.8403C9.50801 17.8667 9.40768 17.8826 9.29679 17.8826C9.01691 17.8826 8.48884 18.1624 8.26178 18.4212C7.97662 18.7591 7.86573 19.1182 7.86573 19.7044V20.2008L5.53167 20.2166C3.25043 20.2377 3.18178 20.2377 2.82269 20.3592C1.69263 20.7341 0.900532 21.4048 0.419992 22.3975C-0.00774143 23.2688 -0.113355 24.1085 0.124275 24.626C0.261572 24.9217 0.594254 25.2068 0.858287 25.2596C0.995584 25.286 1.00086 25.3019 1.00086 25.587C1.00615 26.0993 1.32827 26.6115 1.81937 26.8755L2.03059 26.9917H12.5655H23.1004L23.3169 26.8755C23.808 26.6115 24.1302 26.1045 24.1302 25.587C24.1302 25.3019 24.1354 25.286 24.278 25.2596C24.5368 25.2068 24.8695 24.9217 25.0068 24.626C25.3658 23.8444 24.88 22.2233 24.0351 21.4048L23.8292 21.2041L23.9137 20.8767C23.9717 20.6443 23.9929 20.2853 23.9981 19.6252C23.9981 18.6113 23.9295 18.2205 23.5968 17.4284C23.243 16.573 22.5301 15.6647 21.7644 15.0838C20.2383 13.9273 18.0785 13.6369 16.2937 14.3445C16.0719 14.429 15.8818 14.5029 15.8765 14.5029C15.8712 14.5029 15.8818 14.2864 15.9029 14.0171C15.924 13.7108 15.9663 13.5207 16.0085 13.4943C16.5788 13.1722 16.6897 13.0085 16.9273 12.1161C17.2706 10.8382 17.7987 9.1061 18.163 8.06053C18.6488 6.68227 18.6964 6.50273 18.728 5.77928C18.765 5.02415 18.6911 4.52248 18.4482 3.84128C17.7987 2.02473 16.1669 0.641197 14.0969 0.160656C13.4632 0.0127978 12.2592 -0.0452895 11.6467 0.0392011ZM15.1372 13.7214C15.1214 13.79 15.0897 14.1069 15.0685 14.4343L15.0316 15.0257L14.7306 15.2686C14.023 15.8231 13.4368 16.6522 12.9985 17.7347L12.9352 17.8826H11.6467H10.3582L10.3265 17.6291C10.3107 17.4918 10.2367 16.6205 10.1628 15.6911C10.0889 14.7617 10.0202 13.9115 10.0044 13.8006L9.97799 13.6052H12.5708H15.1636L15.1372 13.7214ZM19.4779 14.8779C21.3895 15.3162 22.8681 16.9004 23.1849 18.8595C23.2694 19.3981 23.2166 20.4384 23.0846 20.8925C22.5407 22.7196 21.1624 24.0187 19.3512 24.4147C18.7914 24.5415 17.8198 24.5256 17.2442 24.3831C16.3729 24.1718 15.5227 23.6966 14.889 23.0629C13.0091 21.1724 13.0038 18.1043 14.8837 16.198C16.0824 14.9835 17.7934 14.4924 19.4779 14.8779ZM12.7081 19.0285C12.6817 19.2291 12.6711 19.5724 12.6817 19.7942L12.6975 20.206H10.6803H8.65782V19.7519C8.65782 19.2133 8.74232 18.9915 9.02219 18.8014L9.21229 18.6747H10.9866H12.7609L12.7081 19.0285ZM12.9827 21.447C13.3576 22.5718 14.1444 23.6121 15.1266 24.2933L15.4435 24.5098L8.34099 24.5256C4.4333 24.5309 1.18569 24.5256 1.11704 24.5098C0.773796 24.4253 0.705148 24.0821 0.895252 23.348C1.18569 22.2074 2.09396 21.3308 3.24515 21.0774C3.49862 21.0193 4.50722 21.0087 8.20369 21.014L12.8401 21.0246L12.9827 21.447ZM23.7447 22.2813C24.0826 22.7302 24.3361 23.4906 24.3414 24.0451C24.3414 24.2933 24.2252 24.457 24.014 24.5098C23.9453 24.5256 23.3011 24.5309 22.5777 24.5256L21.268 24.5098L21.6324 24.2616C22.2714 23.8233 23.0423 22.952 23.3856 22.2761C23.449 22.1546 23.5176 22.0543 23.5387 22.0543C23.5599 22.0543 23.6496 22.1599 23.7447 22.2813ZM23.3381 25.5237C23.3381 25.7877 23.243 25.9567 23.0265 26.1045L22.847 26.226H12.5655H2.28407L2.10452 26.1045C1.88802 25.9567 1.79296 25.7877 1.79296 25.5237V25.3283H12.5655H23.3381V25.5237Z" fill="#fefffe"/>
<path id="Vector_2" d="M17.7616 15.6173C17.5873 15.6437 17.2652 15.7229 17.054 15.7968C15.8975 16.1929 14.8731 17.2173 14.5193 18.3474C14.3767 18.8068 14.4876 19.0444 14.8467 19.0444C15.0473 19.0444 15.1424 18.9388 15.2797 18.5586C15.4751 18.0305 15.6599 17.7401 16.0823 17.3229C17.4659 15.9447 19.6573 16.0767 20.9141 17.6187C21.1201 17.8721 21.3841 18.3632 21.4897 18.6906C21.6059 19.0603 21.9808 19.1553 22.1973 18.8702C22.2924 18.7382 22.2977 18.7065 22.2396 18.4741C21.9755 17.4761 21.157 16.5044 20.1484 15.9975C19.4725 15.6595 18.5009 15.5011 17.7616 15.6173Z" fill="#fefffe"/>
<path id="Vector_3" d="M19.6522 17.9726C19.5941 18.0254 19.2244 18.5218 18.8337 19.0815L18.1208 20.0954L17.7247 19.6782C17.392 19.3297 17.297 19.2558 17.1597 19.2558C16.9432 19.2558 16.79 19.4195 16.79 19.6518C16.79 19.8103 16.8587 19.9106 17.2811 20.3647C17.8356 20.972 18.0152 21.0671 18.3531 20.9403C18.5168 20.8769 18.6541 20.7132 19.2033 19.9423C20.402 18.2525 20.3967 18.263 20.1433 18.0148C19.9954 17.8617 19.8 17.8458 19.6522 17.9726Z" fill="#fefffe"/>
<path id="Vector_4" d="M14.6144 20.1851C14.4137 20.2907 14.382 20.4755 14.4929 20.8346C14.6883 21.4683 14.9893 21.9488 15.5226 22.4822C15.9556 22.9152 16.0929 23.0208 16.526 23.2267C17.3392 23.6228 18.1154 23.7548 18.9023 23.6439C20.2858 23.438 21.3842 22.6353 21.9967 21.3838C22.2924 20.7871 22.3558 20.391 22.1815 20.2379C22.0442 20.1112 21.7855 20.1059 21.6588 20.222C21.6007 20.2749 21.5267 20.4122 21.4951 20.5336C21.136 21.727 20.1696 22.5983 18.9498 22.8254C17.8936 23.0261 16.8692 22.7092 16.0982 21.9488C15.6599 21.5105 15.4329 21.1567 15.2533 20.6128C15.1635 20.3329 15.1002 20.2379 14.9893 20.1745C14.8097 20.0848 14.7939 20.0848 14.6144 20.1851Z" fill="#fefffe"/>
</g>
</svg>
